P3
4 9
255
0 0 0   10 10 10   15 15 15   25 25 25
0 0 0   10 10 10   15 15 15   25 25 25
0 0 0   10 10 10   15 15 15   25 25 25
0 0 0   10 10 10   15 15 15   25 25 25
0 0 0   10 10 10   15 15 15   25 25 25
0 0 0   10 10 10   15 15 15   25 25 25
0 0 0   10 10 10   15 15 15   25 25 25
0 0 0   10 10 10   15 15 15   25 25 25
0 0 0   10 10 10   15 15 15   25 25 25
